<svg xmlns="http://www.w3.org/2000/svg" viewBox="0 0 93.25 65.42"><g id="Layer_2" data-name="Layer 2"><g id="Layer_1-2" data-name="Layer 1"><path d="M79,29.18c.26,0,.26,0,.79-.53s1-1.4,1.22-1.57l.27-.18a10.55,10.55,0,0,1,1.48.44c.35.17-.26.35.35.17s.27-.43.53-.61a9.15,9.15,0,0,1,1.57-.61c.35-.09.71-.61,1-.88a3.74,3.74,0,0,0,.52-.78h.44s1-2.54,1-2.8a13.66,13.66,0,0,0,0-1.93l1.4-.35h1.32v-.61L92,17.1V14.65a1.94,1.94,0,0,0,.88-.35,1.79,1.79,0,0,0,.35-.79v-1s-.53-.35-.61,0-1,.79-1,.79l-1.84.08s.53.18.62.44.61.18.09.26-1.58,0-1.93.09a2.63,2.63,0,0,1-.88,0l-.87-1,.35-.77h-.35s.35-.89,0-.89-1.23.61-1.45,0S85,10.27,85,10.27a1.41,1.41,0,0,1-.88,0c-.35-.18-1.48-.18-1.66-.44a4.1,4.1,0,0,1-.26-1.14l-.09-1-.88-1.49A1,1,0,0,1,81,5.63c0-.35-.17-1.49-.17-1.49l-.7-1.66-1-.79-1-.79h-1L76,.12s-1.83-.27-2.1,0-2.19.78-2.27,1a3.46,3.46,0,0,1-.44.7V2.3l1,.27L71.89,4l-.7.87-.61,1.31s.35.53,0,.79a17.2,17.2,0,0,0-1.23,1.23V9a1.33,1.33,0,0,1-.52.52,2.33,2.33,0,0,1-.88.18h-1l-.44-.27-1.4.88-1,1.57v1.93a1,1,0,0,1,.62.35c.35.35,1.92.44,1.92.44l.7-.26.79-.53c.61-.09,1.49-.17,1.66.09s.44,1.37.61,1.47.18-.42.18.11a11.73,11.73,0,0,0,.09,1.22H68.91s-.17-.17-.61,0-1,0-1.31.44a1.55,1.55,0,0,1-.7.61l-.7.09a3.21,3.21,0,0,1-.88,1l-.35.35-1.93.09a7.44,7.44,0,0,1-.69,1l-.27.27s-.87.08-1.14.08h-.7s-1.31,0-1.48.7a1.59,1.59,0,0,0,0,1.05l-.08.44c0,.44-1.15,1.23-1.32,1.49s-1,.53-1.14.79A3.43,3.43,0,0,1,54,25.5H52.28L51,25.68l-1,.61-1.78.88a2.45,2.45,0,0,1-1.05-.09c-.27-.18-1.23-.7-1.58-.61a4.57,4.57,0,0,1-1.4-.27l-1.75-.61s-1.66-.35-2-.35H38.54a12.79,12.79,0,0,0-1.93-.18A8.38,8.38,0,0,1,34.86,25a10.75,10.75,0,0,1-1.31-2.1c-.18-.61.61-.78,0-1.05s-.35-.52-1-.61a8.54,8.54,0,0,1-2.19-1.05s-.79-.09-1.23-.09a24,24,0,0,1-2.36-.44l-.44-1.05s-.35-.52,0-.78.44-.44.44-.7a4.44,4.44,0,0,1,.09-.7v-.7l-.68-1.49-2.56-1.05v-1l-1.31-.61-1.05-.87L20.6,11v.79l-.7.52-.79.09-1.05,1.31.35,1.65-.35.37s-1.31-.56-1.58-.37a6.44,6.44,0,0,1-1.92,0L14,16.4s.43.7,0,1a1.34,1.34,0,0,0-.53.87l.44.88s.61.52,0,.7a2.61,2.61,0,0,1-1.49-.26s-.44-.18-.7,0a4.63,4.63,0,0,1-.79.35l-.7.43v.53l.44.87.09,1,.17.79.09,1-.79.61s-.44.44,0,.7-.19.61-.19.61l-.77.09L8,26.9s-.78.17-.78.44-.53.61-.53.61l-1.93.44s-.17,1.05-.52,1.14-1.05.17-1.05.17c-.79.35-1.49.35-1.66.61s0-.17-.18.27S.12,31.71.12,31.71s-.27.63,0,.8-.27.77.26.86-.09-.17.52.1l.62.26a2.27,2.27,0,0,1,.61.52c.17.27,0,.53.08.79s.09-.35.09.26-.43.09,0,.61.27.44.88.62.17-.35.61.17.09-.17.44.53l.35.7a5.47,5.47,0,0,0,.7.7c.26.17.79.79,1.23.87s-.88.61.43.09.71-.52,1.32-.52,1.05.37,1.05.75a5.14,5.14,0,0,1-.61,1.43v1a5.14,5.14,0,0,1,.43.7,1.34,1.34,0,0,1,.09,1c-.09.53-.88,1-.88,1a1.74,1.74,0,0,0-.08.79,4.59,4.59,0,0,0,.44.79s.87.35,1,.87-.27.88.35,1a5.24,5.24,0,0,1,.61.18c.53.17.35-.44,1.23,0s.61.44,1.31.53a9.66,9.66,0,0,1,2.45,1.31s-.7.08.61.52,1.67.79,2.37.79,1.57.87,2.27,1.05a3.34,3.34,0,0,0,1.4,0l.79-.44s.52.42.61.52.79-.43.79-.43l.79-.09a6.71,6.71,0,0,1,1.31,0c.44.09.7,0,1.05.09s.35.61.53,1l.17.35h2.54a21.83,21.83,0,0,1,2.27-.43c.44,0,.62-.35,1-.35s1.32.26,1.58.26a1.69,1.69,0,0,0,.61-.18c.61-.26,1,.09,1,.7s-.09,1,0,1.41l.27,1.31a2.16,2.16,0,0,0-.36.87l-.08.53a3.45,3.45,0,0,0-.27.87c0,.27-.87-.08,0,.27l.88.35a1.36,1.36,0,0,1,.44.61c.17.44-.35,0,.44.87s.17.44.78.88,1.23.79,1.23.79H41a.72.72,0,0,1,1,0c.44.44,1.14.08,1.58,0s-.09.08.44-.09a13.38,13.38,0,0,1,1.75-.61c.26,0,.58-.26.9-.35a6.87,6.87,0,0,0,1.29-1,15.9,15.9,0,0,1,2.05.34c.49.18,1.53.44,1.71.88a7.78,7.78,0,0,0,.44,1.09l.26.49s-.09-.09.88,0a10.64,10.64,0,0,0,1.84,0,1.89,1.89,0,0,0-.09.87c.09.35-.26-.26.09.35s-.35.27.35.62.26.35.69.35h.44s-.26-1.32,0-1.32.62-.17,1.14-.26a18.45,18.45,0,0,0,2.19-.79,23.44,23.44,0,0,1,3.85-1.75,5.59,5.59,0,0,0,1.31-.09c.44-.08,1-.44,1.49-.52s.44-.26.88-.61.26-.88.7-1a10.25,10.25,0,0,0,2-2.37c.18-.35.61-.78.79-1.13s.09-.79.26-1.06,1-1.66,1-1.66a6.85,6.85,0,0,1,.7-1.4c.27-.26.27-1.14.27-1.14L73.73,49l-1-.79A5.91,5.91,0,0,0,73.38,47c.09-.35,0-1,.09-1.22a7.75,7.75,0,0,0-.18-1.66L72,42.22l-2.1-1.93L70.49,39l.61-1.14,2-1.49s.35-.35.61-.26.79-.35.35-.52-1-.35-1-.35L72,35a12,12,0,0,0-1.23.7c-.35.26-.35.44-.7.44s-.7-1-.7-1l.36-.61L69.27,34l-.53-.17-2.19-.09.7-1.22s.09-.45.44-.45.7.45.7.45l2.19-1.06.26-.44.18-.78,2.27-1.4a1.07,1.07,0,0,0,.09.7,3.62,3.62,0,0,1,.09,1.31,1.53,1.53,0,0,1-.7.87l.26,1s-.79.41.52,0A11.78,11.78,0,0,0,75.3,32c.79-.26.88-.61,1.14-.7S78.72,29.18,79,29.18Z"/></g></g></svg>