<svg xmlns="http://www.w3.org/2000/svg" viewBox="0 0 985.5 985.5"><defs><style>.cls-1{fill:#25282a;}</style></defs><title>Asset 2</title><g id="Layer_2" data-name="Layer 2"><g id="Layer_3" data-name="Layer 3"><path class="cls-1" d="M946.76,300.94A494.22,494.22,0,1,0,985.5,492.75,491.08,491.08,0,0,0,946.76,300.94ZM693.92,331.51c-2.26-8.28-9.8-3.76-21.1-18.08s-3-35,9.8-33.9c9,.75.75,7.53,3.76,20.34s24.11,19.59,33.16,37.67-2.26,23.36-18.09,18.08S696.18,339.8,693.92,331.51Zm-60.28,6.78c-12.81,3.77-21.09-.75-30.13-3s-11.31,1.51-21.85,6-16.58-1.51-24.11-6.78-.76-6.78,3.76-16.58-2.33-17.32,12.81-18.08,10.55,13.56,17.33,16.57,20.34-7.53,24.86-4.52,22.61,11.31,25.62,12.81S646.45,334.53,633.64,338.29ZM492.75,910.16c-230.16,0-417.41-187.25-417.41-417.41A415.56,415.56,0,0,1,174.55,222.9c13.9-7.13,26.27-17.32,34.53-23.62,8-6.11,13.14-17.26,16.23-26.76a417.6,417.6,0,0,1,125-72.15c0,3-.84,7.32-4.88,10-6.78,4.52-55.75,16.57-61,36.16s7.54,12.81,33.16,0,27.87-3.76,45.2-9,21.1-1.5,30.14-9.79S408,114.15,417,112.64s19.59,0,27.12-15.82c3.42-7.18,9-14.35,14.1-20.06q17.07-1.4,34.5-1.42a416.15,416.15,0,0,1,122.67,18.4c1.68,8.07,10.43,10.2,5.79,18.15-5.27,9-5.27,13.56,1.51,18.08s-19.59,0-30.14,10.55-24.11,38.42-33.9,34.65-13.57-16.57-13.57-16.57,19.59,8.29,21.85-3S527.78,136.75,507.44,142s-25.61,33.91-37.67,38.43-35.41,15.07-27.88,30.89c0,0,9,15.07,24.11,0,0,0-7.53,24.11,7.54,24.11s11.3-26.37,19.59-28.63-6-26.37,6-26.37,7.54-18.08,15.83-13.56-12.06,15.82-3.77,26.37,33.15,0,32.4,9-24.11,1.51-30.89,18.83S494.63,246,478.81,246.75,466,224.15,454,224.15s3.77,19.59-13.56,22.6-9.05,13.56-23.36,18.84-20.34,14.31-42.95,15.07c0,0,15.07,32.39,0,40.68s-33.9-15.07-46-3-5.27,18.83-9.79,30.14-7.54,13.56,6.78,18.83,9.79,12.06,29.38,7.54,27.13-25.62,36.92-32.4,15.82-15.82,30.14-18.08,19.62-6.12,26.37,6C455.45,344,489.36,356,481.07,365.8S457.72,365,460,372.58s10.54,15.07,15.06,15.07,10.55-29.39,15.07-28.64,9.62.94,11.3-.75c5.28-5.27-42.94-35.41-32.39-39.93s34.65,17.33,37.67,30.89,5.27,29.38,19.59,38.43-15.07-34.66,2.26-39.18,11.3,17.33,22.6,26.37,18.84,7.53,36.92,5.27,30.89-3.77,29.38,9,13.57,27.13-6,31.65-33.91,7.53-33.91,7.53-9,1.51-26.37-3-25.62-13.56-35.41-7.54-1.51,16.58-7.53,19.59-6.79-1.5-15.83-4.52-18.08-15.07-30.13-18.08-15.83-3-16.58-20.34-9.79-21.85-30.14-19.59-41.44,12.81-58.77,14.31-18.83-9-24.86-6.78-14.31,6.78-25.62,15.82-3,18.09-10.54,26.37-32.4,12.06-39.94,30.14-21.85,19.59-22.6,28.63,4.52,23.36-3.77,39.18-9,34.66,3,52,11.3,13.56,15.82,26.37,15.07,32.4,33.15,37.67,16.58-6,35.41-2.26,22.6,3.77,43.7,2.26,24.11-5.27,27.13,6,33.15,7.53,37.67,20.34-6,30.89-1.51,42.19,34.66,36.17,33.15,52.74-18.08,33.91-10.55,49,19.59,18.08,23.36,32.4-1.51,21.85,10.55,29.38,17.33,12.81,22.6,20.34-2.26,9.8,24.86,6.78,54.25-24.86,65.55-30.89S608.4,845,618.2,844.23s5.27-7.53,11.3-20.34,12-12.06,30.14-27.88,15.82-23.36,15.07-37.67-8.29-35.41-1.51-47.47,61-66.3,68.56-89.66c3.9-12.08,7.59-27.18,10.25-39a7.41,7.41,0,0,0-11.26-7.86c-10.15,6.59-22.91,13.13-30.26,10.27-13.56-5.27-9-17.33-21.09-24.11s-21.1-11.3-24.87-20.34-12-26.37-18.83-36.92-27.13-42.19-31.65-54.25,9.05-6,17.33,6.78,21.1,24.11,25.62,28.63,7.53,9.8,10.55,19.59,11.3,15.82,18.83,22.6,8.29,18.84,11.31,26.38,5.27,29.38,32.39,2.26C758,527.36,753.19,519.4,765,517.43a26.84,26.84,0,0,0,22.2-29.57c-1.23-10,9.9-17.2,7.72-23.74-2.26-6.78-13.56-11.3-19.59-15.07S767,435.49,767,435.49s-2.26,10.55-8.29,17.33-11.3,14.31-17.32,6.78S729.33,439.26,723.3,434s-24.11-16.57-7.53-22.6.75,21.09,34.66,22.6,44.45,3.77,55-6,18.83-14.31,28.63-1.5S849.88,443,856.66,446s6.78,6.78,8.29,12,12,25.62,15.07,30.14,9,11.3,9,19.59,6,17.33,9,21.1,8.29-24.87,7.54-36.17-5.28-19.59-6-28.63c-.51-6.15,3.5-22.39,6.12-32.16a418.93,418.93,0,0,1,4.43,60.79C910.16,722.91,722.91,910.16,492.75,910.16Z"/><path class="cls-1" d="M362,166.13c5.27,4.52,6.78,4.52,14.31,3.77s12.06-3.77,11.31-9.79c-.67-5.29-6.79-7.54-13.57-6C363.79,156.37,356.75,161.61,362,166.13Z"/><path class="cls-1" d="M387.65,234.7c2.26,7.53,3,8.28-1.51,12.81s-14.32,5.27-9.8,8.28,10.55,3.77,2.26,7.54-12.8,6-8.28,6,10.54-3.76,18.08-3.76,7.53,10.55,15.07-.76-1.51-18.83,0-29.38,3-12-2.26-18.84-4.17-7.43-6.78-7.53c-6.95-.27-6,5.27-6.78,12S385.38,227.16,387.65,234.7Z"/><path class="cls-1" d="M368.06,252.78c9-4.52,7.53-11.3,9.79-12.81s2.26-10.55-2.26-10.55c-8.29,0-12.06,1.51-15.82,6.78s0,4.52-4.52,9.8S359,257.3,368.06,252.78Z"/><path class="cls-1" d="M730.21,756.07c-5.7,8.58-11,17-14.82,18.09-8.29,2.26-18.83,11.3-21.09,18.84s-6.79,18.83-10.55,24.86,2.26,28.63,21.85,11.3,22.6-45.21,27.87-49.73c2.17-1.85,5.36-9.32,8.36-17.46C744.52,754.66,734.52,749.59,730.21,756.07Z"/></g></g></svg>