<svg xmlns="http://www.w3.org/2000/svg" viewBox="0 0 1770.32 2000"><defs><style>.cls-1{fill:#25282a;}</style></defs><title>Asset 1</title><g id="Layer_2" data-name="Layer 2"><g id="Layer_2-2" data-name="Layer 2"><path class="cls-1" d="M1748.33,594.21c6.37-12.74,28-26.75,20.38-38.22s-35.67-12.73-52.22-11.46-2.55-17.83-1.28-25.47-2.55-21.66-8.91-19.11-10.83,10.83-15.93,8.28,5.1-20.38-1.27-28-33.12,21.65-48.4,22.92-44.58-11.46-58.6-1.27-8.91,31.84-21.65,40.76-36.94,3.82-45.86,12.74-10.19,25.47-19.1,30.57S1443.26,616.5,1428,611.4c-12.44-4.14,40.76,45.86,28,65-9.91,14.88-56,11.47-76.42,6.37-15.63-3.9-36.94,6.37-56,12.74s-56-10.19-62.41-17.83,8.91-67.51-11.47-67.51c-9.81,0-19,3.55-27.82,7.37a6.46,6.46,0,0,0-3.88,6c.06,14.8-2.84,20.39-5.24,30-3.82,15.28,2.55,24.2,7.65,43.3s-6.37,14-14,22.93-48.41,2.55-79,0-31.84-2.55-50.95-14-22.92-2.55-43.3-5.09-20.39-14-40.77-29.3-34.39-3.82-52.22-5.1-39.49,0-70.06-17.83S737.6,587.2,727.41,570.64s31.85-66.23,44.59-87.89c4.1-7,5.16-12.9,4.71-17.72a6.4,6.4,0,0,0-4.23-5.38c-15.74-5.7-29.31-11.26-36.15-16.38-20.38-15.29-90.44-42-94.26-72.61s6.37-47.13,26.75-44.58,36.94-39.48,17.83-58.59-34.39-40.76-19.1-49.68,30.57-10.19,36.94-28,48.4-48.4,35.66-73.88-35.66-35.66-70.06-31.84-53.49,39.48-86.61,24.2-51-45.86-77.7-65S439.54,0,423,0s-19.11,11.46-31.85,15.29S344,28,328.73,40.76s-29.3,19.11-25.48,29.3,24.2,3.82,36.94,17.83,11.47,26.75,29.3,35.66,0,36.94-14,48.41,0,58.59-2.55,71.33,3.82,38.21,36.94,45.85,15.28,22.93,30.57,30.57,42,3.82,28,22.93-43.31,0-43.31,31.84-8.91,45.86-22.92,62.42-6.37,35.66-30.57,47.13-28,49.67-42,58.59S249.75,599.94,237,614s-68.79,33.12-75.15,19.11S155.5,606.31,144,610.13s-12.73,17.83-24.2,29.3-42,29.29-35.66,48.4,38.21,16.56,40.76,28-14,29.3-5.1,42c5.4,7.71,15,10.29,21.72,11.12a6.52,6.52,0,0,1,5.64,7.23c-.6,5.72.42,14.77,8.31,26.24,12.59,18.31,13.86,35.59,14,38.91a5.69,5.69,0,0,1-.05,1.09c-.65,4.78-6,40.85-20.31,31.33-15.29-10.19-22.93-17.84-39.49-10.19S88,866.15,76.52,862.33s-20.38,3.82-31.84,0l-1.43-.47a10.85,10.85,0,0,0-14,9.25c-.4,3.12-2,6.46-5.56,9.69-12.73,11.47-43.3,25.48-5.09,52.23s58.59,26.75,77.7,19.1,52.22-24.2,45.85-10.19-33.12,39.49-56,44.58S28.76,998,33.85,1015.82s25.48,12.74,45.86,38.21,16.56,65,84.07,44.58,70.05-39.48,66.23-53.49-12.74-31.85,5.1-36.94,26.75-1.28,21.65,26.75S249.12,1068,258,1084.6s6.37,42,0,67.51-10.19,58.6,11.47,149S273.32,1375,289.88,1426s30.57,62.41,31.84,76.43,14,8.91,17.83,25.47,21.66,45.86,26.75,84.07,6.37,75.15,39.49,118.46,31.84,72.6,43.31,95.53,25.47,36.94,25.47,54.77-10.19,25.48,14,62.42,43.31,65,66.24,54.77,25.47-10.19,33.12-31.85,1.27-30.57,21.65-35.66c11.95-3,24.76-6.85,33.33-9.53a6.45,6.45,0,0,0,3.39-9.85c-3.34-4.67-5.79-11.39-1-18.84,8.91-14,11.46-29.29,26.75-39.48,10-6.66,23.78-6.25,32.14-5.16a6.47,6.47,0,0,0,7.26-6.54c-.24-14.75-1.19-47.22-5-71.1-5.1-31.84,19.1-49.67,28-81.52s7.64-77.7,0-94.25-2.55-24.21-1.27-39.49S714,1511.31,723,1493.48s26.74-35.67,40.76-36.94,7.64,14,17.83,12.74,15.28-7.64,19.1-21.66,6.37-29.29,17.84-28,15.28,15.29,24.2,8.92,31.84-8.92,34.39-29.3-1.27-33.12,20.38-47.13,34.39-11.46,42-20.38,8.92-19.1,20.38-25.47,17.84-5.1,42-34.39,29.29-49.68,44.58-59.87,11.46-35.67,26.75-39.49c8-2,9.38,4.08,8.85,10.31a6.46,6.46,0,0,0,9,6.42l39.87-17.09a6.46,6.46,0,0,0,3.17-2.91c2.3-4.36,8-14.7,13-19.66,6.36-6.36,19.1-19.1,20.38-29.29s-17.84-25.48,0-47.13,35.66-20.38,45.85-28,21.66-12.74,24.2-24.2-5.09,25.47,25.48,22.92c11.74-1,22.92-6.28,33-12.29A6.51,6.51,0,0,0,1299,1024c-5.33-16.54-22.35-70.24-21.27-78.84,1.27-10.19-29.3-30.57-22.93-40.76s14-34.39,3.82-38.22-39.49-16.55-28-36.93,44.58-20.38,38.21-31.85-62.41-35.66-40.76-58.59,51-5.1,72.6,0,19.11,0,25.48,26.75,25.47,40.76,67.51,31.84,79-20.38,89.16-1.27,2.55,42-11.46,50.95-52.23,6.37-48.41,36.94,10.19,38.21,17.84,45.85l.22.23a6.47,6.47,0,0,0,10.8-2.62c4.21-13.71,9.56-28.2,24-25,22.92,5.09,30.57,86.61,44.58,91.71s31.84,6.37,33.11-6.37-11.46-35.67-7.64-47.13,15.29-26.75,14-45.86a234.6,234.6,0,0,1-.26-28.15,6.47,6.47,0,0,1,3.82-5.53c6.46-2.93,20.41-7.31,30.83,3.11,14,14,20.38-44.58,28-53.49s7.64-29.3,3.82-36.94,0-14,11.46-25.48,15.29-29.29,14-35.66-15.28-19.11,0-34.39,43.31-48.41,57.32-54.78,25.48-12.73,36.94-3.82,20.38,16.56,20.38,6.37S1742,606.94,1748.33,594.21Z"/></g></g></svg>