<svg xmlns="http://www.w3.org/2000/svg" viewBox="0 0 1559.79 2129.06"><defs><style>.cls-1{fill:#75787b;}.cls-2{fill:#fff;}</style></defs><title>Artboard 1</title><g id="Layer_1" data-name="Layer 1"><path class="cls-1" d="M779.33,2089.53A66.09,66.09,0,0,1,722.06,2057L166,1124a715.93,715.93,0,1,1,1227.81,0L836.57,2057a66.11,66.11,0,0,1-57.24,32.49Z"/><path class="cls-2" d="M779.89,64.53c381.59,0,690.93,309.34,690.93,690.92A687.34,687.34,0,0,1,1372.37,1111L815.11,2044.23a41.68,41.68,0,0,1-71.58,0l-556.1-933.08A687.72,687.72,0,0,1,89,755.45C89,373.87,398.31,64.53,779.89,64.53m0-50A746.78,746.78,0,0,0,630.62,29.58a737.43,737.43,0,0,0-265,111.52A742.87,742.87,0,0,0,97.22,467,737.53,737.53,0,0,0,54,606.19,746.37,746.37,0,0,0,66.64,956.66a737.37,737.37,0,0,0,77.85,180.06l556.09,933.07a91.59,91.59,0,0,0,157.45.07l557.2-933.06a737.55,737.55,0,0,0,105.59-381.35,745.88,745.88,0,0,0-15.06-149.26,737.13,737.13,0,0,0-111.51-265A742.87,742.87,0,0,0,1068.31,72.78a737.75,737.75,0,0,0-139.15-43.2,746.71,746.71,0,0,0-149.27-15Z"/><path class="cls-2" d="M1209.62,524V471.46a11.59,11.59,0,0,0-7.09-10.68l-415-175.1a19.53,19.53,0,0,0-15.19,0l-415,175.1a11.59,11.59,0,0,0-7.09,10.68V524a11.59,11.59,0,0,0,11.59,11.6h95.31v478.47H359a8.8,8.8,0,0,0-8.81,8.81v54.21a8.8,8.8,0,0,0,8.81,8.81h841.83a8.81,8.81,0,0,0,8.81-8.81v-54.21a8.81,8.81,0,0,0-8.81-8.81h-98.09V535.61H1198A11.6,11.6,0,0,0,1209.62,524ZM528.9,1014.08V535.61h502v478.47Z"/><polygon class="cls-2" points="951.57 939.74 951.57 613.37 912.84 613.37 780.11 734.34 646.95 613.37 608.22 613.37 608.22 939.74 694.38 939.74 694.38 772.64 780.11 850.1 865.4 772.2 865.4 939.74 951.57 939.74"/></g></svg>