<?xml version="1.0" encoding="utf-8"?>
<!-- Generator: Adobe Illustrator 23.0.1, SVG Export Plug-In . SVG Version: 6.00 Build 0)  -->
<svg version="1.1" xmlns="http://www.w3.org/2000/svg" xmlns:xlink="http://www.w3.org/1999/xlink" x="0px" y="0px"
	 viewBox="0 0 2048 242.6" style="enable-background:new 0 0 2048 242.6;" xml:space="preserve">
<style type="text/css">
	.st0{fill:#25282A;}
</style>
<g id="s">
	<path class="st0" d="M59.9,242.6c-28.3,0-46.1-6.8-53.7-10.5c-2.6-1.3-4.3-4-4.3-6.9v-34.3c0-1.3,1.1-2.4,2.4-2.4h0
		c1.1,0,2,0.7,2.3,1.7c6.3,21.1,24.5,48.3,53.4,48.3c22.9,0,27.4-27.7,2.9-43.8l-32.6-19.7c-31-19.7-39-48.7-20.3-71.3
		c0,0,11.9-15.8,46.4-15.8c25.3,0,40.7,4.4,47.9,7.1c3,1.1,5,4,5,7.2v27.1c0,1.3-1.1,2.4-2.4,2.4h0c-1.1,0-2-0.7-2.3-1.8
		c-5.4-19.4-22.9-37.9-48.2-37.9c-21,0-30.3,22.9-2.3,40.6L86.7,153c29,17.7,37.4,50,20.6,72.2C107.3,225.2,95.1,242.6,59.9,242.6z"
		/>
</g>
<g id="c">
	<path class="st0" d="M263.7,127.8c-3.9,11.9-16.8,18.7-28.7,14.8c-11.9-3.9-18.4-16.4-14.5-28.1c1.9-6.4,5.8-10.6,11-12.9
		c3.2-1.6-2.3-9.7-18.4-9.7c-15.2,0-34.8,18.4-34.8,67.7c0,34.8,16.8,51.6,41.6,54.2c15.2,1.5,32.6-4.7,39.5-14.5
		c0.7-1,2.1-1.4,3.2-0.8l0,0c0.9,0.5,1.4,1.6,1.2,2.6c-3.4,18.2-24.2,41.4-63.2,41.4c-42.2,0-74.2-36.4-74.2-78
		c0-40.6,27.7-76.7,85.8-76.7c24.2,0,39,10.3,45.8,17.1C263.4,110.1,266,119.8,263.7,127.8z"/>
</g>
<g id="a">
	<path class="st0" d="M434.3,218.5c1,0.5,1.4,1.7,1,2.7c-4.5,11.5-19.7,21.4-39,21.4c0,0-32.2,0-35.5-27.4
		c-4.5,15.5-22.2,27.4-45.1,27.4c-6.1,0-38.7-2.6-38.7-32.9c0-33.5,26.8-38.4,83.5-52.2v-20.3c0-33.5-18.7-50.6-40.9-39.3
		c-5.2,2.6-9.7,7.7-2.9,9.7c5.2,1.3,9,4.5,11.9,9.7c5.2,10,1.3,22.2-8.7,27.7c-10,5.2-22.6,1.3-27.7-8.7c-3.5-7.4-2.9-16.1,1.6-21.6
		c3.5-4.8,8.4-12.3,23.2-20c14.5-7.7,31-6.8,31-6.8c42.2,0,59.6,26.4,59.6,64.5v48c0,0,0,22.9,15.5,22.6c0,0,5.7,0,8.4-3.7
		C432.1,218.3,433.3,218,434.3,218.5L434.3,218.5z M326.3,201.7c0,0,0,21.3,16.8,21.3c4.2,0,7.7-1.6,10.6-4.2
		c4.5-4,6.8-9.8,6.8-15.8v-41C331.4,168.5,326.3,185.9,326.3,201.7z"/>
</g>
<g id="n">
	<path class="st0" d="M605.8,239.7h-69.1c-1.2,0-2.2-1-2.2-2.2v-0.1c0-0.9,0.6-1.7,1.4-2.1c10.9-4.2,11.5-17.9,11.5-33.7v-63.5
		c0-17.1-8.4-27.1-24.2-27.1c-3.3,0-6.8,1.1-10,2.9c-8.3,4.7-13.3,13.8-13.3,23.4v65c0,17,1.5,29.2,11.8,33.1
		c0.9,0.3,1.4,1.2,1.4,2.1v0c0,1.2-1,2.2-2.2,2.2H442c-1.2,0-2.2-1-2.2-2.2v-0.1c0-0.9,0.6-1.7,1.4-2.1
		c10.9-4.2,11.2-17.3,11.2-33.1v-75.8c0-10.8-3-15.1-14.8-20.5c-1-0.5-1.7-1.5-1.7-2.6l0,0c0-1.4,1-2.5,2.3-2.8l58.1-12
		c2-0.4,3.8,1.1,3.8,3.1v29c7.7-18.4,29-32.9,48-32.9c25.5,0,46.8,10.3,46.8,49v64.8c0,17,1.5,30.1,11.7,33.7
		c0.9,0.3,1.5,1.1,1.5,2.1l0,0C608.1,238.7,607.1,239.7,605.8,239.7z"/>
</g>
<g id="t">
	<path class="st0" d="M818.4,210.1c1.1,0.6,1.5,1.8,1.1,3c-6.1,15.4-24.7,29.6-46.4,29.6c-25.5,0-47.7-10.3-47.7-49.3V95h-16.3
		c-1,0-1.9-0.8-2.1-1.8v0c-0.2-1.3,0.8-2.4,2.1-2.4h16.3v-39c0-2.4,1.8-4.5,4.2-4.8l39.4-5.6c2-0.3,3.8,1.3,3.8,3.3v46.1h37.5
		c1.3,0,2.3,1.1,2.1,2.4l0,0c-0.2,1-1,1.8-2.1,1.8h-37.5v97.4c0,18.1,7.1,27.1,24.5,27.1c8.3,0,14.6-4.6,18.1-8.8
		C816.2,209.8,817.4,209.5,818.4,210.1L818.4,210.1z"/>
</g>
<g id="h">
	<path class="st0" d="M992.4,239.7h-69c-1.2,0-2.2-1-2.2-2.2v0c0-0.9,0.6-1.7,1.4-2.1c10.9-4.2,11.5-17.9,11.5-33.7v-62.9
		c0-18.4-7.4-27.1-24.5-27.1c-2.9,0-6,0.8-9,2.3c-9,4.4-14.5,13.9-14.5,23.9v63.8c0,16.9,1.5,29.8,11.7,33.4
		c0.9,0.3,1.5,1.2,1.5,2.1v0.3c0,1.2-1,2.2-2.2,2.2h-69c-1.2,0-2.2-1-2.2-2.2v-0.4c0-0.9,0.6-1.7,1.4-2.1
		c10.9-4.2,11.5-17.6,11.5-33.4V36.9c0-10.8-3.2-14.8-15-19.3c-1.1-0.4-1.8-1.4-1.8-2.6v0c0-1.3,0.9-2.5,2.2-2.7l57.8-12.2
		c2.1-0.5,4.1,1.2,4.1,3.4v118.3c7.1-17.4,29.3-33.9,48.7-33.9c25.8,0,46.8,11,46.8,49.7v64.2c0,16.9,1.8,30.1,11.8,33.7
		c0.9,0.3,1.5,1.2,1.5,2.1v0C994.6,238.7,993.6,239.7,992.4,239.7z"/>
</g>
<g id="e">
	<path class="st0" d="M1053.4,162.3c-2.2,0-3.9,1.8-3.8,4c2.2,37.3,17.6,51,38.5,55.7c16.2,3.7,39-3.6,46.9-23.3
		c0.5-1.2,1.8-1.8,3-1.3v0c1.1,0.4,1.8,1.7,1.4,2.9c-5.5,19.8-26.7,42.4-67.2,42.4c-42.2,0-73.8-36.1-73.8-76.7
		c0-50.3,36.4-78,78.3-78c39.7,0,66.4,18.1,67.7,70.6c0.1,2.1-1.6,3.9-3.8,3.9L1053.4,162.3z M1097.9,158.2c2.1,0,3.8-1.7,3.8-3.8
		c-0.5-38.4-9.2-62.3-24.8-62.3c-16.4,0-26.5,32.3-27.4,62.2c-0.1,2.1,1.6,3.9,3.8,3.9H1097.9z"/>
</g>
<g id="w">
	<path class="st0" d="M1510.2,92.9L1510.2,92.9c0,1.1-0.9,2.1-2,2.1c-11.9,0.7-23.4,8.8-39.3,51.2l-33.6,91.2
		c-1.1,3.1-4.1,5.2-7.5,5.2l0,0c-3.1,0-5.9-1.8-7.2-4.6l-42.7-93.1l-32.6,92.4c-1.1,3.2-4.1,5.3-7.5,5.3h-0.6
		c-3.1,0-5.9-1.8-7.2-4.6c-27.8-60.7-58.2-126.3-58.2-126.3c-6.9-13.5-14.9-16-20.4-16.6c-1.1-0.1-1.9-1-1.9-2.1v-0.1
		c0-1.2,1-2.1,2.1-2.1h77.3c1.2,0,2.1,1,2.1,2.1V93c0,1.1-0.8,2-1.8,2.1c-13.7,1.7-2.4,23.7-2.4,23.7l30.5,64.3
		c0.5,1.1,2.2,1.1,2.6-0.1l15.6-42.9c-4.8-10.6-13.2-28.4-13.2-28.4c-6.9-13.5-11.5-16-16.5-16.6c-1.1-0.1-1.8-1-1.8-2.1v-0.1
		c0-1.2,1-2.1,2.1-2.1h74.4c1.2,0,2.1,1,2.1,2.1v0c0,1.1-0.8,2-1.9,2.1c-15.3,1.6-3.3,23.8-3.3,23.8l30.2,64.4
		c0.5,1.1,2.2,1.1,2.6-0.1c3.2-8.4,11.9-31.2,14-37.5c2.5-7.6,11.5-48.8-18.3-50.6c-1.1-0.1-2-1-2-2.1v0c0-1.2,1-2.1,2.1-2.1h61.8
		C1509.2,90.8,1510.2,91.7,1510.2,92.9z"/>
</g>
<g id="o">
	<path class="st0" d="M1569.2,242.6c-53.2,0-80-35.1-80-77.4c0-42.6,26.8-77.4,80-77.4c53.5,0,80,34.8,80,77.4
		C1649.2,207.5,1622.7,242.6,1569.2,242.6z M1569.2,92.1c-20.3,0-23.5,14.8-23.5,73.2c0,58.4,3.2,73.2,23.5,73.2
		c20.3,0,23.5-14.8,23.5-73.2C1592.7,106.9,1589.5,92.1,1569.2,92.1z"/>
</g>
<g id="r">
	<path class="st0" d="M1741.7,135.6c-5.8-4.8-9-11.3-9-17.7c0-2.3-4.1-2.3-10,2.2c-9,6.8-14.1,17.6-14.1,28.9V202
		c0,17,1.5,29.5,11.8,33.4c0.9,0.3,1.4,1.2,1.4,2.1l0,0c0,1.2-1,2.2-2.2,2.2h-69.3c-1.2,0-2.2-1-2.2-2.2v0c0-0.9,0.5-1.7,1.4-2.1
		c11.2-4.4,11.5-17.6,11.5-33.4v-75.1c0-10.8-3.2-15.4-15.1-20.9c-1-0.5-1.7-1.5-1.7-2.6l0,0c0-1.4,1-2.5,2.3-2.8l58.8-12.1
		c1.7-0.4,3.3,1,3.3,2.7v37.5c20-30.6,31.3-35.1,40-39c8.7-3.9,21-1.9,28.7,4.8c11.3,9.7,12.3,27.1,2.6,38
		C1769.7,144,1753,145.6,1741.7,135.6z"/>
</g>
<g id="l">
	<path class="st0" d="M1858.4,239.7h-69c-1.2,0-2.2-1-2.2-2.2v0c0-0.9,0.6-1.8,1.4-2.1c10.9-4.2,11.5-17.3,11.5-33.4V36.9
		c0-10.8-3.3-15.7-15.1-20.3c-1-0.4-1.6-1.3-1.6-2.4v0c0-1.2,0.9-2.3,2.1-2.5l57.3-11.5c2.5-0.5,4.8,1.4,4.8,3.9V202
		c0,17,1.5,29.5,11.8,33.4c0.9,0.3,1.4,1.2,1.4,2.1l0,0C1860.7,238.7,1859.7,239.7,1858.4,239.7z"/>
</g>
<g id="d">
	<path class="st0" d="M2048,232.8c0,1.2-0.9,2.2-2.1,2.4l-52.4,7.1c-9,1.6-9-5.8-9-5.8v-24.2c-7.7,21-32.6,30.3-51.6,30.3
		c-40.6,0-69.6-27.1-69.6-78c0-52.6,34.5-76.7,80.3-76.7c20,0,32.9,4.8,40.9,11.9V36c0-10.8-3-14.8-14.8-19.4
		c-1-0.4-1.6-1.3-1.6-2.4v0c0-1.2,0.9-2.3,2.1-2.5l56-11.4c2.8-0.6,5.5,1.6,5.5,4.5v205c0,14.9,2.9,18.9,14.4,20.7
		C2047.1,230.6,2048,231.6,2048,232.8L2048,232.8z M1984.5,142c0-35.1-17.1-50-34.5-50c-19.7,0-31,15.5-31,67.4
		c0,46.4,9.4,67.4,34.2,67.4c17.1,0,29.7-13.5,31.3-29.7V142z"/>
</g>
</svg>
