<svg xmlns="http://www.w3.org/2000/svg" viewBox="0 0 1571.8 2129.06"><defs><style>.cls-1{fill:#25282a;}.cls-2{fill:#fff;}.cls-3,.cls-4{fill:none;stroke:#fff;stroke-linejoin:round;stroke-width:45.98px;}.cls-3{stroke-linecap:round;}</style></defs><title>Artboard 2</title><g id="Layer_1" data-name="Layer 1"><path class="cls-1" d="M785.33,2089.53A66.13,66.13,0,0,1,728.06,2057L172,1124a715.93,715.93,0,1,1,1227.79-.06L842.58,2057a66.11,66.11,0,0,1-57.24,32.49Z"/><path class="cls-2" d="M785.9,64.53c381.59,0,690.92,309.34,690.92,690.92A687.34,687.34,0,0,1,1378.38,1111L821.11,2044.23a41.67,41.67,0,0,1-71.57,0l-556.1-933.08A687.72,687.72,0,0,1,95,755.45C95,373.87,404.31,64.53,785.9,64.53m0-50A746.71,746.71,0,0,0,636.63,29.58a737.23,737.23,0,0,0-265,111.52A743,743,0,0,0,103.22,467,737.5,737.5,0,0,0,60,606.19,746.52,746.52,0,0,0,72.64,956.66a737.4,737.4,0,0,0,77.86,180.06l556.09,933.07a91.59,91.59,0,0,0,157.45.07l557.2-933.06a737.42,737.42,0,0,0,105.58-381.35,745.88,745.88,0,0,0-15-149.26,737.13,737.13,0,0,0-111.51-265A743,743,0,0,0,1074.32,72.78a738,738,0,0,0-139.15-43.2,746.71,746.71,0,0,0-149.27-15Z"/></g><g id="Layer_3" data-name="Layer 3"><path class="cls-3" d="M655.14,832.1l-20,62.91s-70.77,15-85.78-54.33S525,724.16,620.82,689.13c83.79-30.64,130.11-60,130.11-60V574.75s-29.38-25.76-40.1-45.06"/><path class="cls-4" d="M940,855.78s-6,83.56,0,108,52.4,77.15,72.12,116.61c16.21,32.4,9.81,57.34,8.58,76.57-4.77,74.35-44.92,221.29-44.92,221.29H705.18s-49.33-60-70.06-144.4c-31.66-128.84,32.75-159.41,32.8-241.63,0-57.67-32.8-97.23-32.8-97.23"/><path class="cls-3" d="M836.72,832.58s113,51.47,158.73,4.77,46.2-134.4,13.79-163S903,645.76,889.14,625.27l.24-66.49s22-9.61,36-60.76S934.3,418,934.3,418s8.54-77.52-20.37-109.93-153.78-67-218,5.72c0,0-46.71-3.82-61,34.95s10.46,85.78,10.46,85.78-5.06,101,48.64,98.81,66.72-83.56,66.72-83.56,28.36-6.31,49.57-28c20.85-21.28,27.32-54.64,27.32-54.64s11.76,28.59,47,43.21S935,424.84,935,424.84"/><path class="cls-3" d="M954.21,991.87s-31.71,103.31-108,177.18c-76.08,73.7-198.1,106.46-198.1,106.46"/></g></svg>