<svg xmlns="http://www.w3.org/2000/svg" viewBox="0 0 1914.93 815.01">
  <defs>
    <style>
      .cls-1 {
        fill: #25282a;
      }
      .cls-2 {
        fill: #4ebdf4;
      }
    </style>
  </defs>
  <title>Asset 1</title>
  <g id="Layer_2" data-name="Layer 2">
    <g id="Layer_1-2" data-name="Layer 1"><path
      class="cls-1"
      d="M241.12,811.26C127.39,811,55.76,783.65,24.64,768.44a32,32,0,0,1-18-28.86l.38-138.39a9.57,9.57,0,0,1,9.6-9.54h.17A9.54,9.54,0,0,1,26,598.46C51.14,683.74,124.36,794,241.17,794.31c92.55.26,111.1-111.8,12.21-177.25L121.94,537.19C-3,457.33-35.25,339.92,40.61,248.88c0,0,48.4-63.75,187.88-63.36,101.62.27,163.66,17.81,193.08,29.09a32,32,0,0,1,20.55,30l-.3,109.24a9.58,9.58,0,0,1-9.6,9.54h0a9.49,9.49,0,0,1-9.15-6.92c-21.65-78.45-92-153.7-194.62-154-84.73-.23-122.79,92.22-9.58,164.22l131.44,82.49c117.12,72,150.66,202.47,82.62,292.22C432.93,741.39,383.21,811.65,241.12,811.26Z"/><path
      class="cls-1"
      d="M1647.47,209.81h0a8.75,8.75,0,0,0,8.12,8.61c120.59,7.46,83.71,174,73.42,204.62-8.1,24.08-40.33,108.41-54.72,145.89a8.27,8.27,0,0,1-15.22.52L1540.29,314.33s-48.06-89.49,13.42-96a8.62,8.62,0,0,0,7.73-8.52v-.2a8.61,8.61,0,0,0-8.58-8.63L1252,200.13a8.6,8.6,0,0,0-8.62,8.58v.45a8.59,8.59,0,0,0,7.53,8.55c20.3,2.53,38.84,12.67,66.56,67.33,0,0,29.77,63.42,49.49,106.8a21.54,21.54,0,0,1,.6,16.35l-58.43,159.33a8.27,8.27,0,0,1-15.25.67L1174,313.33s-45.31-88.84,9.61-96a8.66,8.66,0,0,0,7.63-8.51v-.29a8.6,8.6,0,0,0-8.58-8.62L975,199.37l-113.51-.31-48.13-.13L856.45,19.76A16,16,0,0,0,838.74.15L674.57,22.37a16,16,0,0,0-13.42,12.12L621.7,198.4l-67.81-.18a8.47,8.47,0,0,0-8.47,7.74h0a8.48,8.48,0,0,0,8.42,9.21l63.79.17L522,612.66c-37.94,157.63,42,199.56,145,199.85,87.89.24,177.66-57.57,216.79-120A8.36,8.36,0,0,0,881.14,681h0A8.31,8.31,0,0,0,871,682c-18.27,17.32-49,37-83.68,36.94-70.4-.19-90.29-36.75-72.74-109.7L797,266.58c7.16-29.73,35.62-50.65,64.37-50.57,33.92.09,62.43,11.67,89.76,68,0,0,122,265.59,233.78,511.16a32.09,32.09,0,0,0,29.14,18.8h2.29a32.13,32.13,0,0,0,30.35-21.34l132.94-373.19L1551.24,796.2A32.12,32.12,0,0,0,1580.38,815h0a32.13,32.13,0,0,0,30.21-21L1747.25,425.7c64.63-171.31,111.36-203.72,159.27-206.59a8.73,8.73,0,0,0,8.18-8.55v0a8.6,8.6,0,0,0-8.57-8.62l-250-.68A8.58,8.58,0,0,0,1647.47,209.81Z"/><path class="cls-2" d="M1901.22,139.43l-987.58-2.71c-7.33,0-13.73-5.56-14.15-12.87a13.67,13.67,0,0,1,13.69-14.48l987.58,2.7c7.32,0,13.73,5.56,14.15,12.87A13.69,13.69,0,0,1,1901.22,139.43Z"/></g>
  </g>
</svg>
