<?xml version="1.0" encoding="utf-8"?>
<!-- Generator: Adobe Illustrator 23.0.1, SVG Export Plug-In . SVG Version: 6.00 Build 0)  -->
<svg version="1.1" xmlns="http://www.w3.org/2000/svg" xmlns:xlink="http://www.w3.org/1999/xlink" x="0px" y="0px"
	 viewBox="0 0 2000 2000" style="enable-background:new 0 0 2000 2000;" xml:space="preserve">
<style type="text/css">
	.st0{fill:#25282A;}
	.st1{fill:#B1B1B3;}
	.st2{fill:#B1B1B3;stroke:#FFFFFF;stroke-width:24;stroke-linejoin:round;stroke-miterlimit:10;}
	.st3{fill:none;stroke:#FFFFFF;stroke-width:24;stroke-linejoin:round;stroke-miterlimit:10;}
	.st4{fill:none;stroke:#FFFFFF;stroke-width:24;stroke-linecap:round;stroke-linejoin:round;stroke-miterlimit:10;}
	.st5{fill:#FFFFFF;}
</style>
<g id="Layer_2">
	<rect x="-0.5" y="-0.5" class="st0" width="2000" height="2000"/>
</g>
<g id="Layer_4">
	<rect x="1" width="2000" height="2000"/>
</g>
<g id="Layer_3">
	<polygon class="st1" points="469,1418 481,1445 443,1496 427,1549 430,1611 476,1655 568,1682 672,1682 782,1638 830,1588 
		841,1527 821,1482 762,1430 794,1389 798,1349 773,1312 652,1278 469,1343 	"/>
</g>
<g id="Layer_1">
	<g id="statue">
		<path class="st2" d="M311.1,892.4c0,0-33-5.1-38.9,49s-0.8,130.2,27.9,182.6c28.7,52.4,22.4,31.3,27.9,56.6
			c5.5,25.4-3.4,15.2,4.2,44s29.2,41,37.2,59.2c0,0-1.3,98.5,46.5,119.2c47.8,20.7,68.9,14.8,104.8,10.1
			c35.9-4.6,88.7-50.3,171.6-76.9s68.5-18.2,109.9-43.1s71-28.7,87.9-56.6s20.3-142,20.3-142s4.2-65.9,14.4-81.1
			c10.1-15.2,72.7-19.9,75.2-135.2s-51.1-155.5-65.1-160.6c-13.9-5.1-27.9-5.1-27.9-5.1s-0.4-11.4-14.4-13.5s-28.7-4.2-28.7-4.2
			s6.3-13.9,1.7-27c-4.6-13.1-4.2-22-7.6-31.3c-3.4-9.3-11-17.7-11-17.7s14.8-14.8,14.4-49.9c-0.4-35.1-10.1-49-10.1-49
			s12.3-25.8,0.8-39.7c0,0,36.3-13.5,30.4-48.2c-5.9-34.7-32.1-24.5-32.1-24.5s11.8-24.9-2.5-34.7c-14.4-9.7-33-9.3-33-9.3
			s8.9-10.6-4.2-22c-13.1-11.4-22.8-5.1-22.8-5.1s-6.3-20.7-15.2-21.1c-8.9-0.4-17.7,8.5-17.7,8.5s-17.3-10.2-32.1-8.5
			s-78.6,14.4-78.6,14.4s-30.9-11-44-7.6c-13.1,3.4-37.2,20.3-37.2,20.3s-41,5.1-54.1,11.8c-13.1,6.8-11,17.7-11,17.7
			s-43.5,0.4-58.3,37.2s-23.7,84.9-30.4,98.9c-6.8,13.9-29.2,22.4,0,79.4c0,0-3.4,13.1-11.8,20.3c-8.5,7.2-18.6,2.1-19.4,22.8
			c-0.8,20.7,8.9,15.6,5.1,26.2c-3.8,10.6-16.9,13.5-16.1,35.5c0,0-13.1,11.4-17.7,33c-4.6,21.6,2.5,35.5,2.5,35.5
			s-13.9,3.8-22,61.7C321.6,880.1,311.1,892.4,311.1,892.4z"/>
		<path class="st3" d="M766.9,1312.3c41.4,24.9,56.1,136.2-110.7,158.2s-187.6-53-187.6-53"/>
		<path class="st3" d="M485.3,1441.3c0,0-78.4,71.7-61.8,149.7c16.6,78,133,99.2,235.5,87.9c102.6-11.3,184-63.7,182-137.5
			c-2-73.8-77.9-111.5-77.9-111.5"/>
		<path class="st4" d="M774.5,1436.7c0,0,85.1,112.7-102.5,151.5"/>
		<path class="st3" d="M754.6,1316.7c0,0,47.8,82.8-98.7,109c-92.1,16.5-119.9-16.6-119.9-16.6"/>
		<line class="st3" x1="597.6" y1="1373.5" x2="587.5" y2="1430"/>
		<line class="st3" x1="732.9" y1="1323.4" x2="748.9" y2="1383.1"/>
		<path class="st4" d="M350.8,936.3c0,0,45.1,47.9,45.1,92.4c0,44.5-60.9,60.9-60.9,60.9"/>
		<path class="st4" d="M649,1124.5c0,0,99.4,176.6,23,218.7"/>
		<path class="st3" d="M802.1,1293c0,0-48.9,34.1-101.4-15.4"/>
		<path class="st4" d="M362.2,1272c0,0,37.5,30.9,59,32.4"/>
		<path class="st4" d="M395.9,774c0,0,3.9,40,36.1,39.4s30.4-13.5,30.4-13.5s14.7,23.7,49.6,13.5s49.6-29.3,49.6-29.3l13.5,10.8
			c0,0-1.7,30.3,12.4,54.5s22,45.6,30.4,63.1c8.5,17.5,10.1,19.2,24.8,14.7s13,32.1,38.3,27c25.4-5.1,19.9-10.1,19.9-10.1
			s24.6,13,28.6-7.9c0,0,14.8-2.4,21.7-13.2c6.9-10.8,23.9-3.2,33.2-20.6c9.3-17.3,25.8,2.5,36.3-23.7s-5.9-53.2-5.9-53.2
			s21.1-28.3,5.9-45.6c0,0,19.4-13.5,17.7-34.7c-1.7-21.1-15.2-40.6-15.2-40.6l40.6-10.1"/>
		<path class="st4" d="M543.5,705.9c0,0,20.3,20.8,40.6,0C604.4,685,592,676,592,676s32.1-14.7,27-54.7c0,0,48.5-9.6,39.4-36.1
			c-9-26.5,11.3-22,11.3-22s-13.2-25.4,5.2-38.3c18.4-13,50,0,50,0s53.5-11.8,44-42.8c0,0,0.3-24.8,41.7-13.5
			c41.4,11.3,41.4,11.3,41.4,11.3"/>
		<path class="st4" d="M624.6,729c0,0,11.8-13.5,31.6-11.3c19.7,2.3,21.1,17.7,33.2,18c12.1,0.3,24.8,8.7,35.5,0s26.2-10.7,31.6-7.2
			c5.4,3.5,18-12,29.3-17.1c11.3-5.1,37.5-6.8,37.5-6.8"/>
	</g>
	<g>
		<path class="st5" d="M1365.6,1046.9h-213.5c-25.5,0-46.1-20.7-46.1-46.1v0c0-25.5,20.7-46.1,46.1-46.1h211.9V741.1
			c0-25.5,20.7-46.1,46.1-46.1h1.6c25.5,0,46.1,20.7,46.1,46.1v213.5h211.9c25.5,0,46.1,20.7,46.1,46.1v0
			c0,25.5-20.7,46.1-46.1,46.1h-211.9v211.9c0,25.5-20.7,46.1-46.1,46.1l0,0c-25.5,0-46.1-20.7-46.1-46.1V1046.9z"/>
	</g>
</g>
</svg>
